<svg id="svg" version="1.1" xmlns="http://www.w3.org/2000/svg" xmlns:xlink="http://www.w3.org/1999/xlink" width="400" height="298.5545335085414" viewBox="0, 0, 400,298.5545335085414"><g id="svgg"><path id="path0" d="M130.097 127.135 C 129.768 127.214,128.895 127.421,128.155 127.595 C 126.650 127.950,126.351 128.061,123.850 129.189 C 121.420 130.285,119.661 131.532,117.539 133.663 C 114.940 136.272,114.492 136.930,112.333 141.301 C 110.633 144.741,110.637 154.374,112.339 157.728 C 112.464 157.976,112.948 158.960,113.415 159.915 C 115.558 164.300,120.503 168.728,125.317 170.571 C 125.646 170.696,126.264 170.939,126.692 171.109 C 129.427 172.197,137.649 172.204,140.345 171.120 C 142.325 170.324,145.410 168.722,146.229 168.065 L 147.125 167.346 147.125 158.180 L 147.125 149.015 146.268 148.278 L 145.411 147.540 139.031 147.631 C 131.669 147.736,131.306 147.862,131.306 150.297 C 131.306 152.534,132.190 152.919,137.561 153.017 L 142.046 153.099 142.131 158.178 C 142.231 164.090,142.174 164.442,141.020 165.039 C 137.351 166.936,131.608 167.425,128.305 166.121 C 124.671 164.688,123.724 164.061,120.910 161.230 C 114.325 154.604,114.544 144.101,121.409 137.245 C 127.413 131.250,135.400 130.611,143.623 135.467 C 145.284 136.447,145.928 136.418,147.036 135.310 C 149.492 132.854,146.414 129.840,139.208 127.645 C 137.865 127.236,131.226 126.864,130.097 127.135 M162.814 127.942 C 161.340 128.687,161.324 128.860,161.319 143.444 C 161.315 156.427,161.557 161.351,162.233 162.046 C 162.385 162.202,162.509 162.521,162.509 162.755 C 162.509 163.470,165.089 166.843,166.607 168.114 C 169.046 170.156,171.573 171.270,175.274 171.933 C 185.653 173.794,194.795 168.978,196.994 160.492 C 197.386 158.976,197.461 156.359,197.461 144.036 L 197.461 129.384 196.746 128.552 C 195.726 127.367,193.818 127.367,192.799 128.552 L 192.084 129.384 192.084 143.574 C 192.084 158.992,192.034 159.555,190.443 162.061 C 185.599 169.693,171.527 169.003,167.743 160.949 L 167.002 159.373 166.922 144.337 L 166.841 129.301 165.865 128.429 C 164.810 127.487,163.976 127.354,162.814 127.942 M214.315 128.250 L 213.443 129.000 213.443 149.465 L 213.443 169.929 214.167 170.700 C 215.216 171.817,216.673 171.754,217.804 170.543 L 218.671 169.616 218.671 151.275 L 218.671 132.935 223.740 132.935 C 228.491 132.935,228.911 132.981,230.416 133.670 C 237.787 137.041,236.173 148.331,228.185 149.277 C 225.181 149.633,224.304 151.957,226.217 154.495 C 226.752 155.206,227.447 156.188,227.761 156.676 C 228.075 157.165,228.447 157.703,228.587 157.871 C 228.728 158.040,230.780 160.979,233.146 164.403 C 237.812 171.152,238.076 171.448,239.474 171.462 C 241.969 171.487,242.648 168.996,240.865 166.357 C 240.241 165.434,239.205 163.888,238.562 162.922 C 237.919 161.956,237.314 161.098,237.218 161.016 C 236.815 160.672,232.316 153.846,232.433 153.757 C 232.504 153.703,233.471 153.021,234.582 152.241 C 236.519 150.882,238.466 148.641,239.224 146.901 C 239.421 146.449,239.750 145.723,239.955 145.287 C 240.481 144.172,240.442 138.516,239.897 136.819 C 238.937 133.829,235.971 130.446,233.112 129.080 C 232.316 128.700,231.397 128.238,231.068 128.054 C 230.685 127.839,227.724 127.679,222.828 127.609 L 215.186 127.500 214.315 128.250 M254.625 127.840 C 253.001 128.531,253.025 128.286,253.025 144.086 C 253.025 162.119,253.150 162.833,257.029 166.833 C 267.130 177.250,287.128 172.339,288.892 159.007 C 289.522 154.245,289.123 129.169,288.406 128.453 C 287.399 127.446,285.853 127.357,284.817 128.248 L 283.943 128.999 283.794 144.186 C 283.690 154.743,283.541 159.555,283.304 159.970 C 283.117 160.299,282.714 161.083,282.408 161.713 C 281.950 162.657,280.242 164.458,278.865 165.450 C 275.118 168.148,267.065 167.912,262.894 164.981 C 258.593 161.959,258.404 161.054,258.392 143.382 C 258.382 129.839,258.356 129.170,257.808 128.512 C 257.172 127.749,255.613 127.420,254.625 127.840 " stroke="none" fill="#368ce1" fill-rule="evenodd"></path><path id="path1" d="M0.000 149.365 L 0.000 298.730 200.000 298.730 L 400.000 298.730 400.000 149.365 L 400.000 0.000 200.000 0.000 L 0.000 0.000 0.000 149.365 M139.288 127.148 C 142.227 127.915,145.865 129.773,147.491 131.337 C 149.968 133.720,147.510 137.514,144.223 136.382 C 143.522 136.141,142.903 135.804,142.846 135.634 C 142.790 135.464,142.553 135.325,142.320 135.325 C 142.087 135.325,141.896 135.224,141.896 135.101 C 141.895 134.978,141.257 134.632,140.477 134.333 C 139.697 134.033,138.826 133.664,138.540 133.511 C 138.255 133.359,137.643 133.234,137.181 133.234 C 136.719 133.234,136.195 133.089,136.018 132.911 C 135.497 132.390,128.654 132.968,128.285 133.564 C 128.194 133.711,127.930 133.831,127.698 133.831 C 124.436 133.831,118.824 139.878,117.141 145.204 C 116.721 146.532,116.690 153.442,117.102 153.697 C 117.267 153.798,117.401 154.132,117.401 154.437 C 117.401 155.502,119.508 159.131,121.063 160.746 C 122.683 162.428,124.451 164.003,124.719 164.003 C 124.803 164.003,125.569 164.339,126.420 164.750 C 127.272 165.161,128.204 165.497,128.492 165.497 C 128.781 165.497,129.099 165.631,129.201 165.795 C 129.309 165.970,131.040 166.094,133.383 166.094 C 135.726 166.094,137.457 165.970,137.565 165.795 C 137.667 165.631,138.070 165.497,138.462 165.497 C 138.853 165.497,139.250 165.373,139.344 165.221 C 139.437 165.069,139.916 164.857,140.407 164.749 L 141.299 164.553 141.299 158.901 L 141.299 153.249 136.965 153.249 C 131.700 153.249,130.844 152.830,130.844 150.258 C 130.844 147.333,131.756 146.975,139.208 146.975 C 148.329 146.975,147.872 146.381,147.872 158.239 L 147.872 166.854 146.985 167.930 C 146.180 168.906,143.451 170.470,140.848 171.446 C 137.214 172.809,130.287 172.828,126.214 171.487 C 124.983 171.082,120.953 169.129,120.687 168.810 C 120.605 168.711,120.000 168.240,119.343 167.764 C 118.686 167.288,117.738 166.455,117.237 165.912 C 114.853 163.330,114.414 162.802,114.414 162.517 C 114.414 162.349,114.300 162.211,114.160 162.211 C 114.021 162.211,113.655 161.639,113.347 160.941 C 113.039 160.243,112.703 159.604,112.599 159.522 C 112.496 159.440,112.108 158.566,111.738 157.580 C 109.549 151.751,110.165 143.240,113.116 138.542 C 113.501 137.929,113.816 137.339,113.816 137.230 C 113.816 135.995,121.915 128.753,123.295 128.753 C 123.453 128.753,124.040 128.518,124.599 128.230 C 127.590 126.692,135.351 126.121,139.288 127.148 M166.422 128.187 L 167.289 129.115 167.289 143.874 C 167.289 151.992,167.407 158.867,167.551 159.153 C 167.696 159.438,168.030 160.177,168.295 160.795 C 168.933 162.285,170.999 164.493,172.337 165.115 C 172.929 165.390,173.480 165.693,173.562 165.790 C 174.306 166.659,181.364 167.097,183.591 166.412 C 187.824 165.110,191.187 161.618,191.187 158.525 C 191.187 157.943,191.322 157.383,191.486 157.282 C 191.679 157.163,191.785 152.046,191.785 142.911 L 191.785 128.726 192.518 127.992 C 193.568 126.943,195.976 126.943,197.026 127.992 L 197.760 128.726 197.760 144.322 C 197.760 161.832,197.777 161.662,195.574 165.049 C 193.428 168.345,189.693 171.046,185.810 172.108 C 184.057 172.587,175.078 172.808,174.652 172.382 C 174.480 172.210,174.033 172.069,173.658 172.069 C 172.993 172.069,171.421 171.548,169.441 170.671 C 165.839 169.076,161.314 163.435,161.314 160.538 C 161.314 159.999,161.180 159.474,161.016 159.373 C 160.479 159.041,160.621 129.804,161.165 128.753 C 162.113 126.920,164.953 126.614,166.422 128.187 M233.235 128.438 C 240.680 132.474,243.693 143.526,238.762 148.714 C 238.556 148.932,238.387 149.218,238.387 149.351 C 238.387 149.775,236.132 151.933,234.621 152.954 C 233.817 153.498,233.116 153.976,233.063 154.016 C 233.010 154.055,233.168 154.336,233.413 154.639 C 233.658 154.942,234.764 156.535,235.870 158.178 C 236.976 159.821,237.961 161.232,238.059 161.314 C 238.157 161.397,239.212 162.899,240.403 164.654 C 243.010 168.492,243.178 169.429,241.553 171.053 C 239.664 172.943,237.737 172.274,235.659 169.006 C 235.111 168.144,234.426 167.179,234.138 166.863 C 233.850 166.546,233.536 166.042,233.441 165.743 C 233.346 165.443,233.143 165.198,232.990 165.198 C 232.836 165.198,232.711 165.007,232.711 164.775 C 232.711 164.542,232.610 164.307,232.487 164.252 C 232.364 164.197,231.768 163.413,231.163 162.509 C 230.558 161.606,228.981 159.320,227.658 157.431 C 223.627 151.674,223.634 149.331,227.684 148.868 C 232.868 148.277,236.155 142.827,234.092 138.246 C 232.376 134.436,229.843 133.234,223.538 133.234 L 219.286 133.234 219.202 151.531 C 219.112 171.375,219.182 170.565,217.454 171.586 C 216.041 172.421,213.294 171.658,213.294 170.430 C 213.294 170.181,213.159 169.978,212.995 169.978 C 212.518 169.978,212.591 129.828,213.069 128.976 C 214.083 127.172,213.859 127.209,222.997 127.322 L 231.367 127.426 233.235 128.438 M257.879 127.851 C 259.040 128.765,259.091 129.426,259.204 145.024 C 259.269 154.044,259.422 159.765,259.602 159.946 C 259.764 160.107,259.895 160.423,259.895 160.647 C 259.895 162.334,263.695 165.341,267.176 166.407 C 268.673 166.866,274.301 166.851,275.526 166.385 C 279.422 164.903,281.597 162.853,282.808 159.522 C 283.095 158.730,283.189 154.916,283.192 143.796 L 283.196 129.115 284.063 128.187 C 285.595 126.547,288.615 126.988,289.437 128.972 C 289.890 130.065,289.732 158.748,289.263 160.656 C 287.426 168.127,280.556 172.678,271.148 172.657 C 267.326 172.649,266.714 172.551,262.435 171.262 C 262.106 171.163,261.480 170.833,261.044 170.530 C 260.608 170.226,260.162 169.978,260.053 169.978 C 259.226 169.978,256.182 167.031,254.829 164.921 C 252.700 161.598,252.747 162.048,252.736 144.497 L 252.726 128.726 253.459 127.992 C 254.419 127.033,256.744 126.959,257.879 127.851 " stroke="none" fill="#fcbc2c" fill-rule="evenodd"></path><path id="path2" d="M213.136 149.515 C 213.136 160.687,213.173 165.214,213.219 159.575 C 213.264 153.936,213.264 144.794,213.219 139.261 C 213.173 133.728,213.136 138.342,213.136 149.515 M167.128 144.137 C 167.128 152.024,167.167 155.207,167.214 151.212 C 167.261 147.216,167.261 140.763,167.214 136.873 C 167.167 132.982,167.128 136.251,167.128 144.137 M132.416 132.552 C 132.870 132.621,133.543 132.619,133.910 132.548 C 134.277 132.477,133.906 132.421,133.084 132.423 C 132.263 132.425,131.962 132.483,132.416 132.552 M221.448 133.157 C 222.728 133.213,224.745 133.213,225.929 133.157 C 227.112 133.100,226.064 133.054,223.600 133.055 C 221.135 133.055,220.167 133.101,221.448 133.157 M218.811 151.158 C 218.811 161.098,218.849 165.164,218.895 160.194 C 218.941 155.224,218.941 147.091,218.895 142.121 C 218.849 137.151,218.811 141.217,218.811 151.158 M116.287 149.365 C 116.287 150.105,116.346 150.407,116.417 150.037 C 116.488 149.668,116.488 149.063,116.417 148.693 C 116.346 148.323,116.287 148.626,116.287 149.365 M135.250 153.172 C 136.441 153.228,138.391 153.228,139.582 153.172 C 140.773 153.115,139.798 153.069,137.416 153.069 C 135.034 153.069,134.059 153.115,135.250 153.172 M283.266 157.730 C 283.266 158.305,283.327 158.540,283.402 158.252 C 283.477 157.965,283.477 157.494,283.402 157.207 C 283.327 156.919,283.266 157.155,283.266 157.730 M177.521 167.196 C 177.808 167.271,178.279 167.271,178.566 167.196 C 178.854 167.121,178.618 167.060,178.043 167.060 C 177.468 167.060,177.233 167.121,177.521 167.196 M272.218 167.196 C 272.506 167.271,272.976 167.271,273.264 167.196 C 273.551 167.121,273.316 167.060,272.741 167.060 C 272.166 167.060,271.931 167.121,272.218 167.196 M178.267 172.588 C 179.130 172.648,180.541 172.648,181.404 172.588 C 182.267 172.527,181.561 172.478,179.836 172.478 C 178.111 172.478,177.405 172.527,178.267 172.588 M269.679 172.588 C 270.541 172.648,271.953 172.648,272.816 172.588 C 273.678 172.527,272.972 172.478,271.247 172.478 C 269.522 172.478,268.816 172.527,269.679 172.588 " stroke="none" fill="#94a48c" fill-rule="evenodd"></path><path id="path3" d="M128.603 126.974 C 128.187 127.163,128.368 127.190,129.201 127.063 C 129.858 126.963,130.452 126.832,130.520 126.771 C 130.777 126.545,129.177 126.715,128.603 126.974 M136.545 126.771 C 136.613 126.832,137.207 126.963,137.864 127.063 C 138.697 127.190,138.878 127.163,138.462 126.974 C 137.888 126.715,136.288 126.545,136.545 126.771 M126.363 127.456 C 126.117 127.538,125.728 127.665,125.499 127.738 C 125.270 127.811,125.147 127.935,125.226 128.014 C 125.305 128.093,125.896 127.965,126.538 127.729 C 127.594 127.343,127.437 127.098,126.363 127.456 M162.136 127.582 C 160.744 128.393,160.717 128.709,160.717 144.404 C 160.717 152.535,160.818 159.250,160.941 159.327 C 161.064 159.403,161.123 152.925,161.071 144.931 C 160.970 129.243,161.030 128.491,162.445 127.723 C 162.891 127.481,163.122 127.282,162.957 127.280 C 162.793 127.279,162.423 127.414,162.136 127.582 M192.909 127.580 C 192.623 127.746,192.245 128.179,192.067 128.542 L 191.745 129.201 192.288 128.568 C 192.586 128.219,193.099 127.787,193.428 127.606 C 193.757 127.425,193.891 127.277,193.727 127.277 C 193.562 127.277,193.194 127.413,192.909 127.580 M196.365 127.667 C 196.665 127.909,197.110 128.353,197.352 128.654 C 197.762 129.163,197.770 129.154,197.470 128.536 C 197.293 128.170,196.849 127.725,196.483 127.548 C 195.864 127.249,195.856 127.257,196.365 127.667 M229.873 127.518 C 230.939 127.963,232.284 128.218,231.964 127.914 C 231.800 127.758,231.128 127.549,230.471 127.450 C 229.711 127.335,229.493 127.360,229.873 127.518 M253.850 127.580 C 253.564 127.746,253.173 128.177,252.980 128.538 C 252.701 129.059,252.823 129.011,253.573 128.302 C 254.761 127.182,254.826 127.011,253.850 127.580 M257.668 128.078 C 258.154 128.576,258.604 128.935,258.668 128.875 C 258.852 128.706,258.067 127.858,257.394 127.498 C 256.975 127.274,257.060 127.454,257.668 128.078 M287.886 127.617 C 289.485 128.389,289.513 128.708,289.413 144.882 C 289.362 153.087,289.412 159.570,289.523 159.288 C 289.986 158.120,289.794 129.669,289.317 128.747 C 288.894 127.927,288.022 127.234,287.473 127.279 C 287.339 127.290,287.525 127.442,287.886 127.617 M140.851 127.857 C 141.674 128.210,141.966 128.210,141.748 127.857 C 141.646 127.692,141.268 127.567,140.908 127.579 C 140.277 127.599,140.275 127.609,140.851 127.857 M121.088 130.031 C 119.060 131.421,116.878 133.234,117.232 133.234 C 117.357 133.234,118.084 132.680,118.849 132.004 C 119.613 131.327,120.945 130.374,121.807 129.884 C 122.670 129.395,123.376 128.940,123.376 128.874 C 123.376 128.567,122.790 128.863,121.088 130.031 M234.021 129.144 C 234.330 129.339,235.002 129.815,235.514 130.200 C 236.125 130.659,236.042 130.531,235.275 129.827 C 234.632 129.236,233.959 128.761,233.781 128.770 C 233.603 128.780,233.711 128.948,234.021 129.144 M283.396 128.952 C 283.286 129.061,283.227 135.413,283.265 143.067 L 283.334 156.983 283.489 142.942 C 283.661 127.442,283.669 128.679,283.396 128.952 M212.895 129.251 C 212.619 129.527,212.643 169.978,212.920 169.978 C 213.043 169.978,213.144 160.769,213.144 149.515 C 213.144 138.260,213.133 129.052,213.119 129.052 C 213.106 129.052,213.005 129.141,212.895 129.251 M258.726 143.988 C 258.735 151.792,258.858 158.447,258.999 158.775 C 259.147 159.120,259.263 153.310,259.272 145.034 C 259.282 136.254,259.177 130.521,258.999 130.246 C 258.810 129.954,258.715 134.724,258.726 143.988 M237.700 132.412 C 238.037 132.782,238.474 133.398,238.672 133.782 C 238.871 134.166,239.103 134.409,239.190 134.323 C 239.396 134.116,237.722 131.755,237.364 131.746 C 237.212 131.743,237.363 132.043,237.700 132.412 M148.021 133.504 C 148.021 134.310,148.122 134.907,148.245 134.831 C 148.368 134.754,148.469 134.095,148.469 133.365 C 148.469 132.636,148.368 132.039,148.245 132.039 C 148.122 132.039,148.021 132.698,148.021 133.504 M129.500 132.935 C 128.952 133.170,128.965 133.193,129.649 133.208 C 130.060 133.217,130.597 133.094,130.844 132.935 C 131.432 132.555,130.384 132.555,129.500 132.935 M136.072 132.935 C 136.173 133.099,136.551 133.224,136.911 133.213 C 137.542 133.193,137.544 133.183,136.968 132.935 C 136.146 132.582,135.853 132.582,136.072 132.935 M126.512 133.990 C 125.691 134.402,125.288 134.651,125.616 134.543 C 127.075 134.066,128.160 133.627,128.349 133.438 C 128.766 133.022,127.963 133.263,126.512 133.990 M218.965 151.507 L 218.820 169.930 218.100 170.696 C 216.857 172.019,214.055 171.903,213.493 170.507 C 213.371 170.203,213.336 170.202,213.317 170.505 C 213.200 172.386,217.439 172.355,218.695 170.466 C 219.118 169.829,219.440 148.594,219.199 137.267 C 219.150 134.966,219.044 141.375,218.965 151.507 M228.265 133.368 C 228.365 133.469,228.894 133.679,229.439 133.835 C 229.984 133.992,230.305 134.005,230.152 133.865 C 229.834 133.574,227.984 133.087,228.265 133.368 M115.339 135.226 C 114.113 136.738,112.760 138.910,113.045 138.910 C 113.114 138.910,113.474 138.406,113.846 137.789 C 114.218 137.173,115.053 136.025,115.701 135.238 C 116.349 134.451,116.829 133.762,116.767 133.706 C 116.705 133.650,116.063 134.334,115.339 135.226 M232.017 135.400 C 232.778 136.098,233.718 137.341,234.106 138.163 C 234.494 138.984,234.728 139.320,234.626 138.910 C 234.308 137.624,233.038 135.675,232.004 134.887 C 230.473 133.719,230.480 133.990,232.017 135.400 M142.793 135.580 C 142.793 135.824,143.466 136.150,144.976 136.638 C 145.550 136.824,147.377 136.182,147.682 135.688 C 147.783 135.526,147.373 135.643,146.773 135.949 C 145.621 136.537,144.655 136.473,143.465 135.731 C 143.096 135.500,142.793 135.432,142.793 135.580 M240.221 136.993 C 240.397 137.637,240.609 138.230,240.693 138.312 C 240.957 138.569,240.429 136.385,240.158 136.097 C 240.017 135.947,240.045 136.350,240.221 136.993 M121.420 137.487 C 120.770 138.183,120.575 138.474,120.986 138.134 C 122.608 136.791,123.177 136.221,122.895 136.221 C 122.733 136.221,122.069 136.791,121.420 137.487 M240.883 141.150 C 240.882 142.629,240.932 143.271,240.995 142.578 C 241.058 141.885,241.058 140.675,240.997 139.890 C 240.935 139.104,240.884 139.671,240.883 141.150 M112.226 140.173 C 111.443 142.047,111.404 142.672,112.172 141.029 C 112.587 140.141,112.866 139.354,112.792 139.279 C 112.717 139.205,112.463 139.607,112.226 140.173 M118.308 141.578 C 117.837 142.458,117.336 143.854,117.578 143.612 C 117.864 143.326,118.900 141.001,118.741 141.001 C 118.673 141.001,118.478 141.261,118.308 141.578 M111.016 143.727 C 110.767 144.972,111.008 145.213,111.277 143.988 C 111.390 143.472,111.421 142.987,111.345 142.911 C 111.269 142.835,111.121 143.202,111.016 143.727 M234.085 144.102 C 233.623 145.311,232.632 146.507,231.068 147.741 C 230.661 148.063,230.786 148.040,231.462 147.669 C 232.881 146.890,235.241 143.431,234.713 142.904 C 234.645 142.835,234.362 143.375,234.085 144.102 M240.372 144.511 C 240.292 144.798,240.134 145.370,240.020 145.780 C 239.885 146.270,239.914 146.424,240.106 146.229 C 240.267 146.064,240.481 145.493,240.580 144.959 C 240.771 143.938,240.622 143.616,240.372 144.511 M110.413 146.850 C 110.171 147.480,110.220 151.470,110.477 152.117 C 110.588 152.399,110.686 151.222,110.694 149.503 C 110.710 146.203,110.699 146.104,110.413 146.850 M132.487 147.334 C 131.809 147.720,130.844 148.747,130.844 149.082 C 130.844 149.205,131.301 148.848,131.860 148.290 L 132.875 147.274 139.174 147.274 L 145.472 147.274 146.448 148.146 L 147.423 149.017 147.423 158.125 C 147.423 163.134,147.524 167.170,147.647 167.094 C 147.771 167.017,147.872 163.056,147.872 158.290 C 147.872 148.652,147.819 148.365,145.869 147.321 C 144.987 146.849,133.318 146.860,132.487 147.334 M116.609 149.664 C 116.609 151.060,116.661 151.632,116.724 150.934 C 116.786 150.235,116.786 149.093,116.724 148.394 C 116.661 147.696,116.609 148.267,116.609 149.664 M226.736 148.979 C 226.120 149.204,224.944 150.302,224.944 150.652 C 224.944 150.810,225.217 150.592,225.551 150.168 C 225.919 149.700,226.653 149.286,227.418 149.114 C 228.187 148.942,228.387 148.828,227.931 148.823 C 227.521 148.819,226.983 148.889,226.736 148.979 M236.748 150.806 C 235.152 152.586,235.301 152.676,237.058 150.993 C 237.675 150.402,238.868 148.745,238.645 148.789 C 238.585 148.801,237.732 149.708,236.748 150.806 M224.527 151.631 C 224.427 151.892,224.476 152.329,224.636 152.602 C 224.866 152.998,224.928 152.901,224.935 152.128 C 224.945 151.065,224.808 150.899,224.527 151.631 M233.682 153.283 C 232.664 153.935,232.334 154.373,233.234 153.879 C 233.919 153.502,234.993 152.671,234.802 152.666 C 234.720 152.663,234.216 152.941,233.682 153.283 M141.304 158.999 C 141.307 162.822,141.406 164.600,141.598 164.302 C 141.991 163.695,141.991 153.249,141.598 153.249 C 141.409 153.249,141.301 155.362,141.304 158.999 M110.855 154.742 C 110.864 154.989,110.987 155.459,111.128 155.788 L 111.384 156.385 111.401 155.788 C 111.410 155.459,111.287 154.989,111.128 154.742 C 110.870 154.344,110.840 154.344,110.855 154.742 M233.607 155.340 C 233.958 155.833,234.311 156.236,234.391 156.236 C 234.471 156.236,234.299 155.833,234.008 155.340 C 233.717 154.847,233.364 154.444,233.224 154.444 C 233.084 154.444,233.256 154.847,233.607 155.340 M117.833 156.385 C 118.106 157.043,118.464 157.715,118.629 157.879 C 118.794 158.043,118.674 157.605,118.361 156.905 C 117.624 155.255,117.187 154.824,117.833 156.385 M111.486 156.833 C 112.197 158.891,112.473 159.522,112.665 159.522 C 112.787 159.522,112.608 158.883,112.267 158.103 C 111.667 156.728,111.172 155.923,111.486 156.833 M191.412 157.305 C 191.288 157.429,191.196 157.945,191.206 158.452 C 191.225 159.352,191.232 159.357,191.516 158.644 C 191.836 157.843,191.766 156.947,191.412 157.305 M119.206 158.925 C 119.660 159.825,123.540 163.704,123.987 163.704 C 124.161 163.704,123.489 163.027,122.495 162.200 C 121.501 161.372,120.682 160.599,120.675 160.482 C 120.668 160.365,120.250 159.798,119.746 159.223 C 119.050 158.430,118.920 158.358,119.206 158.925 M197.311 160.119 C 197.198 160.636,197.172 161.126,197.255 161.208 C 197.337 161.290,197.497 160.935,197.610 160.418 C 197.724 159.902,197.749 159.412,197.667 159.330 C 197.585 159.248,197.425 159.603,197.311 160.119 M229.398 160.069 C 229.559 160.370,229.926 160.807,230.213 161.040 C 230.535 161.302,230.463 161.094,230.023 160.493 C 229.239 159.421,228.945 159.222,229.398 160.069 M252.751 159.970 C 252.742 160.299,252.865 160.769,253.025 161.016 C 253.408 161.610,253.408 160.863,253.025 159.970 L 252.768 159.373 252.751 159.970 M113.428 161.165 C 113.703 161.740,114.032 162.211,114.160 162.211 C 114.289 162.211,114.116 161.740,113.777 161.165 C 113.437 160.590,113.108 160.119,113.045 160.119 C 112.982 160.119,113.154 160.590,113.428 161.165 M167.888 160.573 C 167.886 160.895,169.278 163.050,169.813 163.555 C 170.860 164.543,171.148 164.533,170.231 163.541 C 169.631 162.891,168.858 161.889,168.514 161.314 C 168.170 160.739,167.888 160.406,167.888 160.573 M161.345 161.016 C 161.326 161.513,162.395 164.003,162.627 164.003 C 162.708 164.003,162.529 163.432,162.229 162.733 C 161.929 162.035,161.611 161.262,161.522 161.016 C 161.379 160.617,161.360 160.617,161.345 161.016 M288.872 160.794 C 288.872 160.836,288.740 161.331,288.579 161.894 C 288.415 162.466,288.405 162.794,288.558 162.639 C 288.895 162.293,289.303 160.717,289.054 160.717 C 288.954 160.717,288.872 160.751,288.872 160.794 M238.387 162.211 C 239.207 163.362,239.401 163.363,238.746 162.212 C 238.466 161.721,238.128 161.317,237.993 161.316 C 237.859 161.315,238.036 161.718,238.387 162.211 M260.167 161.862 C 260.328 162.163,260.698 162.600,260.988 162.833 C 261.362 163.133,261.317 162.974,260.834 162.285 C 260.097 161.233,259.694 160.978,260.167 161.862 M196.326 163.188 C 195.743 164.591,195.735 164.674,196.248 164.009 C 196.740 163.372,197.245 161.901,197.043 161.695 C 197.006 161.657,196.684 162.329,196.326 163.188 M253.534 162.580 C 253.606 162.959,253.926 163.602,254.245 164.009 C 254.820 164.745,254.820 164.742,254.269 163.477 C 253.604 161.950,253.356 161.647,253.534 162.580 M279.761 163.936 C 278.775 164.873,278.365 165.386,278.850 165.074 C 279.729 164.510,280.591 163.706,281.366 162.728 C 282.082 161.824,281.605 162.183,279.761 163.936 M231.754 163.404 C 232.034 163.896,232.373 164.299,232.507 164.300 C 232.642 164.301,232.464 163.898,232.114 163.406 C 231.293 162.254,231.099 162.253,231.754 163.404 M188.842 163.287 C 188.620 163.538,188.498 163.803,188.570 163.875 C 188.643 163.947,188.946 163.737,189.244 163.407 C 189.542 163.078,189.665 162.813,189.516 162.819 C 189.367 162.826,189.064 163.036,188.842 163.287 M115.759 164.300 C 116.251 164.874,116.688 165.401,116.729 165.470 C 116.770 165.540,116.869 165.531,116.948 165.451 C 117.028 165.372,116.592 164.845,115.978 164.281 L 114.863 163.256 115.759 164.300 M125.869 164.784 C 126.666 165.199,127.383 165.473,127.463 165.393 C 127.603 165.252,124.982 163.989,124.607 164.017 C 124.505 164.025,125.073 164.370,125.869 164.784 M187.155 164.792 L 186.258 165.560 187.229 165.016 C 187.763 164.717,188.200 164.366,188.200 164.237 C 188.200 163.910,188.160 163.931,187.155 164.792 M162.808 164.457 C 162.808 164.799,164.292 166.723,165.183 167.537 C 166.621 168.851,169.097 170.659,169.250 170.506 C 169.334 170.422,168.759 169.939,167.973 169.434 C 166.549 168.519,164.687 166.725,163.455 165.083 C 163.099 164.609,162.808 164.327,162.808 164.457 M240.478 165.198 C 240.829 165.691,241.183 166.094,241.265 166.094 C 241.348 166.094,241.128 165.691,240.777 165.198 C 240.426 164.705,240.071 164.302,239.989 164.302 C 239.907 164.302,240.127 164.705,240.478 165.198 M286.797 165.322 C 286.439 165.900,285.248 167.208,284.149 168.227 C 283.050 169.246,282.434 169.889,282.781 169.655 C 284.670 168.382,287.975 164.799,287.604 164.427 C 287.517 164.341,287.154 164.744,286.797 165.322 M139.881 164.908 C 138.880 165.311,139.067 165.515,140.105 165.153 C 140.597 164.981,141.001 164.787,141.001 164.721 C 141.001 164.543,140.637 164.604,139.881 164.908 M263.181 164.730 C 263.181 164.959,265.305 166.162,265.451 166.016 C 265.531 165.935,265.054 165.586,264.389 165.240 C 263.725 164.893,263.181 164.664,263.181 164.730 M128.305 165.795 C 129.127 166.149,129.419 166.149,129.201 165.795 C 129.099 165.631,128.722 165.506,128.362 165.518 C 127.731 165.538,127.729 165.548,128.305 165.795 M233.804 166.393 C 234.095 166.886,234.443 167.289,234.577 167.289 C 234.711 167.289,234.522 166.886,234.157 166.393 C 233.793 165.900,233.445 165.497,233.385 165.497 C 233.324 165.497,233.513 165.900,233.804 166.393 M117.401 166.051 C 117.401 166.200,117.872 166.681,118.447 167.119 C 119.022 167.558,119.492 167.864,119.492 167.800 C 119.492 167.736,119.022 167.256,118.447 166.732 C 117.872 166.209,117.401 165.903,117.401 166.051 M194.432 166.318 C 193.484 167.462,193.143 167.993,193.489 167.785 C 193.870 167.556,195.197 165.795,194.988 165.795 C 194.920 165.795,194.670 166.031,194.432 166.318 M255.715 166.243 C 256.726 167.628,259.794 170.179,260.090 169.883 C 260.175 169.797,259.931 169.559,259.548 169.354 C 259.164 169.149,258.046 168.230,257.064 167.313 C 256.082 166.396,255.474 165.915,255.715 166.243 M130.993 166.393 C 132.174 166.693,134.685 166.693,135.624 166.393 C 136.096 166.241,135.219 166.156,133.234 166.159 C 131.197 166.163,130.411 166.245,130.993 166.393 M174.459 166.393 C 174.705 166.552,175.176 166.675,175.504 166.666 L 176.102 166.650 175.504 166.393 C 174.611 166.009,173.865 166.009,174.459 166.393 M183.570 166.393 L 182.972 166.650 183.570 166.666 C 183.898 166.675,184.369 166.552,184.615 166.393 C 185.209 166.009,184.463 166.009,183.570 166.393 M266.169 166.393 C 266.415 166.552,266.886 166.675,267.214 166.666 L 267.812 166.650 267.214 166.393 C 266.321 166.009,265.575 166.009,266.169 166.393 M241.804 167.200 C 243.868 171.433,239.251 173.463,236.397 169.578 C 234.757 167.346,234.534 167.124,235.278 168.463 C 236.441 170.554,238.177 172.069,239.411 172.069 C 241.899 172.069,243.490 168.883,241.947 166.990 L 241.338 166.243 241.804 167.200 M178.193 167.032 C 179.014 167.159,180.358 167.158,181.180 167.032 C 182.424 166.841,182.174 166.803,179.686 166.803 C 177.199 166.803,176.949 166.841,178.193 167.032 M269.679 167.011 C 270.541 167.128,271.953 167.128,272.816 167.011 C 274.072 166.841,273.760 166.799,271.247 166.799 C 268.734 166.799,268.422 166.841,269.679 167.011 M146.808 167.916 C 146.696 168.096,145.990 168.634,145.238 169.111 C 144.486 169.587,144.012 169.978,144.183 169.978 C 144.551 169.978,146.827 168.368,147.113 167.906 C 147.221 167.731,147.242 167.588,147.160 167.588 C 147.078 167.588,146.919 167.735,146.808 167.916 M191.497 169.094 C 190.148 170.247,190.479 170.238,191.934 169.081 C 192.555 168.588,192.943 168.191,192.797 168.197 C 192.651 168.204,192.066 168.607,191.497 169.094 M120.687 168.737 C 120.687 168.866,121.158 169.195,121.733 169.469 C 122.308 169.744,122.778 169.916,122.778 169.853 C 122.778 169.790,122.308 169.460,121.733 169.121 C 121.158 168.782,120.687 168.609,120.687 168.737 M189.096 170.575 C 188.521 170.890,188.158 171.153,188.290 171.160 C 188.606 171.177,190.291 170.300,190.291 170.119 C 190.291 169.924,190.274 169.930,189.096 170.575 M124.421 170.874 C 124.523 171.038,124.900 171.163,125.260 171.152 C 125.891 171.131,125.893 171.121,125.317 170.874 C 124.495 170.520,124.203 170.520,124.421 170.874 M186.408 171.621 C 185.833 171.842,185.564 172.027,185.810 172.033 C 186.057 172.038,186.662 171.857,187.155 171.631 C 188.308 171.103,187.772 171.095,186.408 171.621 M278.118 171.621 C 277.543 171.842,277.274 172.027,277.521 172.033 C 277.767 172.038,278.372 171.857,278.865 171.631 C 280.019 171.103,279.482 171.095,278.118 171.621 M127.110 171.770 C 127.438 171.911,127.976 172.027,128.305 172.027 L 128.902 172.027 128.305 171.770 C 127.976 171.629,127.438 171.513,127.110 171.513 L 126.512 171.513 127.110 171.770 M138.760 171.770 C 137.999 172.097,138.784 172.097,139.806 171.770 C 140.406 171.578,140.435 171.529,139.955 171.522 C 139.627 171.517,139.089 171.629,138.760 171.770 M172.218 171.770 C 172.547 171.911,173.017 172.027,173.264 172.027 C 173.546 172.027,173.491 171.932,173.114 171.770 C 172.786 171.629,172.315 171.513,172.069 171.513 C 171.786 171.513,171.841 171.608,172.218 171.770 M130.350 172.438 C 130.540 172.558,131.972 172.657,133.532 172.657 C 135.093 172.657,136.526 172.558,136.716 172.438 C 136.905 172.317,135.474 172.218,133.534 172.218 C 131.594 172.218,130.161 172.317,130.350 172.438 M174.596 172.348 C 174.704 172.523,175.278 172.666,175.870 172.666 C 177.189 172.666,177.075 172.515,175.549 172.239 C 174.767 172.097,174.462 172.132,174.596 172.348 M183.420 172.367 L 182.674 172.607 183.420 172.632 C 183.831 172.646,184.369 172.527,184.615 172.367 C 185.186 171.999,184.572 171.999,183.420 172.367 M266.318 172.367 C 266.647 172.509,267.252 172.620,267.662 172.615 L 268.409 172.607 267.662 172.367 C 267.252 172.236,266.647 172.124,266.318 172.119 L 265.721 172.111 266.318 172.367 M274.832 172.367 L 274.085 172.607 274.832 172.615 C 275.243 172.620,275.848 172.509,276.176 172.367 L 276.774 172.111 276.176 172.119 C 275.848 172.124,275.243 172.236,274.832 172.367 " stroke="none" fill="#ccac5c" fill-rule="evenodd"></path><path id="path4" d="M132.555 126.877 C 133.085 126.943,134.026 126.944,134.646 126.880 C 135.266 126.815,134.832 126.761,133.682 126.760 C 132.532 126.758,132.025 126.811,132.555 126.877 M127.409 127.558 C 127.032 127.720,126.977 127.815,127.259 127.815 C 127.506 127.815,127.976 127.699,128.305 127.558 C 128.681 127.396,128.737 127.301,128.454 127.301 C 128.208 127.301,127.737 127.417,127.409 127.558 M193.968 127.495 C 193.772 127.619,194.133 127.721,194.772 127.721 C 195.412 127.721,195.772 127.619,195.576 127.495 C 195.380 127.370,195.019 127.268,194.772 127.268 C 194.526 127.268,194.164 127.370,193.968 127.495 M218.596 127.482 C 220.444 127.535,223.469 127.535,225.317 127.482 C 227.166 127.430,225.653 127.387,221.957 127.387 C 218.260 127.387,216.748 127.430,218.596 127.482 M254.817 127.572 C 254.490 127.793,254.611 127.821,255.265 127.674 C 256.364 127.429,256.602 127.258,255.838 127.264 C 255.523 127.266,255.063 127.405,254.817 127.572 M164.924 127.633 C 164.993 127.674,165.448 128.043,165.936 128.454 C 166.596 129.010,166.711 129.048,166.384 128.603 C 165.866 127.898,165.451 127.569,165.073 127.562 C 164.923 127.560,164.856 127.591,164.924 127.633 M161.778 128.437 C 161.489 128.756,161.323 129.193,161.410 129.408 C 161.530 129.709,161.571 129.701,161.590 129.374 C 161.603 129.140,161.836 128.703,162.108 128.403 C 162.379 128.102,162.535 127.857,162.453 127.857 C 162.370 127.857,162.067 128.118,161.778 128.437 M258.540 143.839 C 258.540 151.889,258.579 155.140,258.626 151.062 C 258.673 146.984,258.673 140.397,258.626 136.424 C 258.579 132.451,258.540 135.788,258.540 143.839 M191.923 143.988 C 191.923 151.957,191.962 155.217,192.009 151.232 C 192.056 147.248,192.056 140.728,192.009 136.744 C 191.962 132.760,191.923 136.019,191.923 143.988 M197.599 143.689 C 197.599 151.494,197.637 154.686,197.685 150.784 C 197.732 146.882,197.732 140.497,197.685 136.594 C 197.637 132.692,197.599 135.885,197.599 143.689 M252.864 143.988 C 252.864 151.957,252.903 155.217,252.950 151.232 C 252.997 147.248,252.997 140.728,252.950 136.744 C 252.903 132.760,252.864 136.019,252.864 143.988 M283.633 143.540 C 283.633 151.262,283.672 154.464,283.719 150.655 C 283.766 146.847,283.766 140.529,283.719 136.615 C 283.672 132.702,283.633 135.818,283.633 143.540 M289.309 143.689 C 289.309 151.329,289.348 154.455,289.395 150.635 C 289.442 146.815,289.442 140.564,289.395 136.744 C 289.348 132.924,289.309 136.049,289.309 143.689 M161.153 143.839 C 161.153 151.397,161.192 154.446,161.240 150.614 C 161.287 146.783,161.287 140.599,161.239 136.873 C 161.192 133.146,161.153 136.281,161.153 143.839 M119.882 131.314 L 119.044 132.082 120.015 131.407 C 120.549 131.036,120.986 130.690,120.986 130.638 C 120.986 130.403,120.655 130.605,119.882 131.314 M236.756 131.740 C 237.406 132.479,238.180 133.420,238.475 133.831 C 238.992 134.553,238.992 134.545,238.482 133.602 C 238.191 133.065,237.417 132.124,236.763 131.511 L 235.572 130.396 236.756 131.740 M147.780 133.160 C 147.927 134.255,147.840 134.506,147.036 135.310 C 146.535 135.811,146.237 136.221,146.374 136.221 C 147.436 136.221,148.543 133.390,147.887 132.353 C 147.709 132.071,147.672 132.352,147.780 133.160 M117.238 133.607 L 116.057 134.877 117.396 133.682 C 118.133 133.025,118.794 132.453,118.865 132.412 C 118.936 132.371,118.865 132.338,118.706 132.338 C 118.548 132.338,117.887 132.909,117.238 133.607 M130.321 132.543 C 130.609 132.619,131.079 132.619,131.367 132.543 C 131.654 132.468,131.419 132.407,130.844 132.407 C 130.269 132.407,130.034 132.468,130.321 132.543 M134.454 132.445 C 134.522 132.504,135.317 132.628,136.221 132.720 C 137.244 132.824,137.638 132.791,137.267 132.633 C 136.694 132.390,134.196 132.223,134.454 132.445 M227.956 133.042 C 228.025 133.101,228.484 133.240,228.977 133.350 C 229.631 133.497,229.752 133.469,229.425 133.247 C 229.022 132.974,227.656 132.784,227.956 133.042 M232.562 135.325 C 233.203 135.982,233.796 136.520,233.878 136.520 C 233.960 136.520,233.502 135.982,232.860 135.325 C 232.219 134.668,231.626 134.130,231.544 134.130 C 231.462 134.130,231.920 134.668,232.562 135.325 M121.274 137.341 L 119.642 139.059 121.359 137.426 C 122.955 135.909,123.214 135.624,122.992 135.624 C 122.945 135.624,122.172 136.397,121.274 137.341 M240.329 141.150 C 240.329 142.863,240.420 144.034,240.532 143.753 C 240.643 143.471,240.735 142.300,240.735 141.150 C 240.735 140.000,240.643 138.829,240.532 138.547 C 240.420 138.266,240.329 139.437,240.329 141.150 M110.910 146.975 C 110.910 147.715,110.969 148.017,111.040 147.647 C 111.111 147.278,111.111 146.673,111.040 146.303 C 110.969 145.934,110.910 146.236,110.910 146.975 M232.543 147.050 L 231.665 148.021 232.636 147.144 C 233.170 146.661,233.607 146.224,233.607 146.173 C 233.607 145.942,233.361 146.145,232.543 147.050 M136.296 147.497 C 137.898 147.551,140.519 147.551,142.121 147.497 C 143.723 147.443,142.412 147.399,139.208 147.399 C 136.004 147.399,134.694 147.443,136.296 147.497 M110.600 149.365 C 110.594 149.940,110.692 151.150,110.816 152.054 C 111.014 153.484,111.046 153.542,111.059 152.502 C 111.068 151.845,110.971 150.635,110.843 149.813 C 110.656 148.616,110.608 148.527,110.600 149.365 M147.405 158.178 C 147.405 162.614,147.446 164.470,147.497 162.303 C 147.548 160.136,147.548 156.506,147.498 154.237 C 147.447 151.968,147.405 153.742,147.405 158.178 M225.013 152.054 C 225.013 152.629,225.075 152.864,225.150 152.577 C 225.225 152.289,225.225 151.819,225.150 151.531 C 225.075 151.243,225.013 151.479,225.013 152.054 M234.653 152.240 C 234.116 152.698,234.006 152.879,234.379 152.694 C 234.926 152.422,235.953 151.439,235.660 151.467 C 235.599 151.473,235.146 151.821,234.653 152.240 M141.896 158.565 L 142.045 164.152 142.127 158.797 C 142.173 155.852,142.106 153.338,141.979 153.210 C 141.852 153.083,141.814 155.493,141.896 158.565 M118.569 158.576 C 118.730 158.877,119.097 159.314,119.384 159.547 C 119.706 159.809,119.634 159.600,119.194 158.999 C 118.410 157.927,118.116 157.728,118.569 158.576 M161.390 159.074 C 161.393 159.731,161.454 159.965,161.526 159.593 C 161.597 159.222,161.594 158.684,161.520 158.398 C 161.445 158.113,161.386 158.417,161.390 159.074 M288.948 159.074 C 288.951 159.731,289.012 159.965,289.084 159.593 C 289.155 159.222,289.152 158.684,289.078 158.398 C 289.003 158.113,288.944 158.417,288.948 159.074 M166.990 159.056 C 166.990 159.457,167.100 159.854,167.235 159.937 C 167.370 160.020,167.421 159.692,167.350 159.208 C 167.194 158.140,166.990 158.054,166.990 159.056 M121.583 162.061 C 122.141 162.636,122.664 163.107,122.746 163.107 C 122.828 163.107,122.439 162.636,121.882 162.061 C 121.325 161.486,120.801 161.016,120.719 161.016 C 120.637 161.016,121.026 161.486,121.583 162.061 M280.825 163.494 C 279.569 164.966,279.559 164.993,280.625 164.003 C 281.570 163.126,282.538 161.878,282.236 161.925 C 282.189 161.933,281.554 162.638,280.825 163.494 M238.568 163.052 C 238.879 163.597,239.394 164.269,239.712 164.546 C 240.048 164.838,239.930 164.549,239.429 163.854 C 238.232 162.191,237.901 161.883,238.568 163.052 M115.535 163.555 C 115.877 164.048,116.735 164.989,117.442 165.646 C 118.533 166.659,118.483 166.568,117.116 165.049 C 114.956 162.646,114.812 162.510,115.535 163.555 M188.928 163.779 L 188.051 164.750 189.022 163.872 C 189.556 163.390,189.993 162.953,189.993 162.902 C 189.993 162.671,189.746 162.874,188.928 163.779 M163.379 164.849 C 163.540 165.150,163.906 165.587,164.193 165.820 C 164.516 166.082,164.444 165.873,164.004 165.273 C 163.219 164.201,162.925 164.002,163.379 164.849 M193.066 167.296 C 192.374 167.950,191.910 168.484,192.035 168.484 C 192.159 168.484,192.786 167.946,193.428 167.289 C 194.929 165.752,194.698 165.756,193.066 167.296 M164.600 166.486 C 164.600 166.538,165.037 166.975,165.571 167.457 L 166.542 168.335 165.665 167.364 C 164.847 166.459,164.600 166.256,164.600 166.486 M284.821 167.364 L 283.943 168.335 284.914 167.457 C 285.448 166.975,285.885 166.538,285.885 166.486 C 285.885 166.256,285.638 166.459,284.821 167.364 M132.412 166.906 C 132.864 166.974,133.603 166.974,134.055 166.906 C 134.507 166.837,134.137 166.781,133.234 166.781 C 132.330 166.781,131.960 166.837,132.412 166.906 M241.815 168.945 C 241.811 169.659,241.910 170.083,242.034 169.886 C 242.328 169.424,242.336 167.962,242.046 167.785 C 241.923 167.709,241.819 168.231,241.815 168.945 M213.317 169.701 C 213.304 169.960,213.663 170.498,214.115 170.896 L 214.937 171.621 214.302 170.874 C 213.954 170.463,213.595 169.925,213.504 169.679 C 213.364 169.295,213.337 169.298,213.317 169.701 M217.734 170.587 C 217.301 171.073,217.045 171.471,217.165 171.471 C 217.396 171.471,218.136 170.680,218.493 170.052 C 218.831 169.458,218.582 169.634,217.734 170.587 M129.724 171.976 C 130.011 172.051,130.482 172.051,130.769 171.976 C 131.057 171.901,130.822 171.839,130.246 171.839 C 129.671 171.839,129.436 171.901,129.724 171.976 M136.150 171.981 C 136.521 172.053,137.059 172.050,137.345 171.975 C 137.630 171.900,137.326 171.842,136.669 171.845 C 136.012 171.849,135.778 171.910,136.150 171.981 M132.562 172.285 C 133.096 172.351,133.969 172.351,134.503 172.285 C 135.037 172.219,134.600 172.164,133.532 172.164 C 132.465 172.164,132.028 172.219,132.562 172.285 " stroke="none" fill="#8c9c94" fill-rule="evenodd"></path></g></svg>